<svg xmlns="http://www.w3.org/2000/svg" xml:space="preserve" width="200" height="200" style="width:100%;height:100%;background-size:initial;background-repeat:initial;background-position-y:initial;background-position-x:initial;background-origin:initial;background-color:initial;background-clip:initial;background-attachment:initial;animation-play-state:paused" viewBox="0 0 100 100"><g class="ldl-scale" style="transform-origin:50% 50%;transform:rotate(0deg) scale(.8,.8);animation-play-state:paused"><path fill="#333" d="M75 62.5h5.4c1.8 0 3.2 1.5 3.2 3.2v18.5c0 1.8-1.5 3.2-3.2 3.2H75c-1.8 0-3.2-1.5-3.2-3.2V65.8c0-1.8 1.4-3.3 3.2-3.3zM24.6 62.5h-5.4c-1.8 0-3.2 1.5-3.2 3.2v18.5c0 1.8 1.5 3.2 3.2 3.2h5.4c1.8 0 3.2-1.5 3.2-3.2V65.8c.1-1.8-1.4-3.3-3.2-3.3z" style="fill:#133341;animation-play-state:paused"/><path fill="#333" d="M86.8 75H13.2c-1.8 0-3.2-1.4-3.2-3.2V47.3c0-4.3 3.5-7.8 7.8-7.8h64.5c4.3 0 7.8 3.5 7.8 7.8v24.4c-.1 1.8-1.5 3.3-3.3 3.3zM72.8 12.6H27.2c-5.4 0-9.7 4.4-9.7 9.7v17.2h65V22.4c0-5.4-4.4-9.8-9.7-9.8z" style="fill:#133341;animation-play-state:paused"/><path fill="#fff" d="M69.2 17.4H30.8c-4.5 0-8.1 3.6-8.1 8.1v14.1h54.6V25.5c0-4.5-3.6-8.1-8.1-8.1z" style="fill:#008fd4;animation-play-state:paused"/><circle cx="19.3" cy="48.7" r="5.6" fill="#fff" style="fill:#008fd4;animation-play-state:paused"/><circle cx="80.1" cy="48.7" r="5.6" fill="#fff" style="fill:#008fd4;animation-play-state:paused"/><path fill="none" stroke="#fff" stroke-linecap="round" stroke-miterlimit="10" stroke-width="2.51" d="M29.6 52.6h40.8M29.6 59.7h40.8M29.6 66.7h40.8" style="stroke:#008fd4;animation-play-state:paused"/></g></svg>