<svg xmlns="http://www.w3.org/2000/svg" xml:space="preserve" width="50" height="50" style="width:50%;height:50%;background-size:initial;background-repeat:initial;background-position-y:initial;background-position-x:initial;background-origin:initial;background-color:initial;background-clip:initial;background-attachment:initial;animation-play-state:paused" viewBox="0 0 100 100"><g class="ldl-scale" style="transform-origin:50% 50%;transform:rotate(0deg) scale(.8,.8);animation-play-state:paused"><path fill="none" stroke="#333" stroke-linecap="round" stroke-miterlimit="10" stroke-width="3" d="M49.161 78.087c2.608-1.48 5.904-1.68 8.671-.525 3.566 1.488 6.168 5.016 9.954 5.788 4.36.889 8.589-2.284 11.046-5.994 4.352-6.57 5.098-14.967 4.03-22.775-.355-2.595-.933-5.254-2.48-7.367-1.547-2.113-4.285-3.545-6.812-2.859s-4.184 3.996-2.691 6.148" style="stroke:#333;animation-play-state:paused"/><path fill="#333" d="m46.556 23.089-8.518 2.632a1.245 1.245 0 0 1-1.611-1.144l-.487-13.324c-.044-1.19 1.654-1.715 2.446-.756l8.763 10.611c.563.683.254 1.72-.593 1.981zM51.775 23.089l8.518 2.632a1.244 1.244 0 0 0 1.611-1.144l.487-13.325c.044-1.19-1.654-1.715-2.446-.756l-8.763 10.611a1.246 1.246 0 0 0 .593 1.982zM66.324 70.407C66.324 90.213 58.642 90 49.166 90s-17.158.213-17.158-19.593c0-15.527 7.682-32.532 17.158-32.532S66.324 54.88 66.324 70.407z" style="fill:#333;animation-play-state:paused"/><ellipse cx="49.166" cy="29.372" fill="#333" rx="14.418" ry="12.939" style="fill:#333;animation-play-state:paused"/><path d="M55.887 40.815c4.575-2.169 7.697-6.476 7.697-11.443 0-2.156-.596-4.185-1.636-5.973l.444-12.146c.044-1.19-1.654-1.715-2.446-.756l-5.62 6.805a16.054 16.054 0 0 0-1.208-.363l-.171 4.795a12.351 12.351 0 0 1 1.636 6.123c0 5.091-3.122 9.505-7.697 11.729 6.136 5.668 10.437 18.423 10.437 30.332 0 16.976-5.373 19.602-12.674 20.008 1.441.078 2.953.074 4.517.074 9.476 0 17.158.213 17.158-19.593 0-11.618-4.302-24.062-10.437-29.592z" opacity=".5" style="animation-play-state:paused"/><ellipse cx="43.501" cy="27.882" fill="#fff" rx="3.93" ry="3.339" style="fill:#fff;animation-play-state:paused"/><ellipse cx="43.501" cy="27.83" rx="1.669" ry="3.287" style="animation-play-state:paused"/><ellipse cx="54.83" cy="27.882" fill="#fff" rx="3.93" ry="3.339" style="fill:#fff;animation-play-state:paused"/><ellipse cx="54.83" cy="27.83" rx="1.669" ry="3.287" style="animation-play-state:paused"/><path fill="none" stroke="#000" stroke-linecap="round" stroke-miterlimit="10" d="m49.161 35.563-2.536 2.104M49.161 35.563l2.536 2.104M49.161 35.563v-2.146" style="animation-play-state:paused"/><ellipse cx="49.166" cy="32.918" fill="#e15b64" rx="2" ry="1.25" style="fill:#e15b64;animation-play-state:paused"/></g></svg>