<svg xmlns="http://www.w3.org/2000/svg" xml:space="preserve" width="55" height="55" style="width:30%;height:30%;background-size:initial;background-repeat:initial;background-position-y:initial;background-position-x:initial;background-origin:initial;background-color:initial;background-clip:initial;background-attachment:initial;animation-play-state:paused" viewBox="0 0 100 100"><g stroke-linecap="round" stroke-linejoin="round" stroke-miterlimit="10" stroke-width="3.5" class="ldl-scale" style="transform-origin:50% 50%;transform:rotate(0deg) scale(.8,.8);animation-play-state:paused"><path fill="#e15b64" stroke="#333" d="M56.172 82.307c-4.115-1.131-8.23-1.131-12.345 0-2.888.794-5.99.724-8.669-.615-6.565-3.283-9.41-11.579-4.715-18.064l8.561-11.824c5.35-7.39 16.343-7.438 21.759-.097l8.727 11.832c4.78 6.479 1.958 14.836-4.629 18.144-2.682 1.347-5.793 1.42-8.689.624z" style="stroke:#333;fill:#5b91e1;animation-play-state:paused"/><path fill="none" stroke="#fff" d="m39.785 61.46 4.469-6.173c.358-.494.741-.956 1.146-1.385M36.157 66.394c.302-.453.572-.854.659-.974" style="stroke:#fff;animation-play-state:paused"/><path fill="#e15b64" stroke="#333" d="M46.696 28.451c.892 7.819-2.119 12.705-8.015 13.378S28.75 38.42 27.858 30.601c-.892-7.819 3.614-12.876 8.015-13.378s9.93 3.409 10.823 11.228zM26.288 44.147c4.044 5.721 3.785 10.824-.529 13.874-4.314 3.049-9.211 1.591-13.255-4.13s-2.692-11.597.529-13.874 9.211-1.591 13.255 4.13zM73.712 44.147c-4.044 5.721-3.785 10.824.529 13.874 4.314 3.049 9.211 1.591 13.255-4.13s2.692-11.597-.529-13.874-9.211-1.591-13.255 4.13zM53.304 28.451c-.892 7.819 2.119 12.705 8.015 13.378s9.931-3.409 10.823-11.228-3.614-12.876-8.015-13.378c-4.401-.502-9.93 3.409-10.823 11.228z" style="stroke:#333;fill:#5b91e1;animation-play-state:paused"/><path stroke="#000" d="m69.491 63.538-1.532-2.078c2.224 5.864-.636 12.342-6.246 15.16-2.683 1.348-5.794 1.421-8.69.625-4.115-1.131-8.23-1.131-12.345 0-2.888.794-5.99.724-8.668-.615a13.015 13.015 0 0 1-3.281-2.336c1.022 3.112 3.294 5.83 6.431 7.398 2.678 1.34 5.781 1.409 8.668.615 4.115-1.131 8.23-1.131 12.345 0 2.896.796 6.006.723 8.69-.625 6.585-3.308 9.408-11.665 4.628-18.144zM46.696 28.451c-.435-3.814-1.977-6.691-3.95-8.586.371 1.071.653 2.24.8 3.525.892 7.819-2.119 12.705-8.015 13.378-2.685.307-4.979-.384-6.771-1.954 1.677 5.037 5.199 7.554 9.921 7.016 5.895-.673 8.907-5.559 8.015-13.379zM26.288 44.147a15.285 15.285 0 0 0-1.107-1.374c1.676 4.188.789 7.811-2.571 10.186-3.832 2.709-8.122 1.852-11.868-2.381.404 1.092.98 2.205 1.763 3.312 4.044 5.721 8.941 7.18 13.255 4.13 4.314-3.048 4.573-8.151.528-13.873zM86.967 40.017c-.085-.06-.18-.11-.269-.166.462 2.62-.121 5.821-2.352 8.978-4.044 5.721-8.941 7.18-13.255 4.13-.063-.044-.116-.093-.177-.138.284 2.058 1.396 3.835 3.326 5.2 4.314 3.049 9.211 1.591 13.255-4.13 4.045-5.722 2.692-11.598-.528-13.874zM68.479 19.297c.557 1.801.782 3.894.515 6.242-.892 7.819-4.927 11.901-10.823 11.228-1.796-.205-3.32-.806-4.552-1.756 1.021 3.951 3.692 6.36 7.701 6.818 5.896.673 9.931-3.409 10.823-11.228.585-5.129-1.157-9.058-3.664-11.304z" opacity=".1" style="animation-play-state:paused"/></g></svg>